<mxfile host="app.diagrams.net" agent="Mozilla/5.0 (Macintosh; Intel Mac OS X 10.15; rv:140.0) Gecko/20100101 Firefox/140.0" version="27.1.4">
  <diagram name="Page-1" id="sQDzEd_xI0HFWAMSjWak">
    <mxGraphModel dx="1234" dy="727" grid="1" gridSize="10" guides="1" tooltips="1" connect="1" arrows="1" fold="1" page="1" pageScale="1" pageWidth="850" pageHeight="1100" math="0" shadow="0">
      <root>
        <mxCell id="0" />
        <mxCell id="1" parent="0" />
        <mxCell id="qpErMOOokMr1HH3b0IK4-1" value="Layer 1" style="rounded=0;whiteSpace=wrap;html=1;" vertex="1" parent="1">
          <mxGeometry x="100" y="40" width="50" height="210" as="geometry" />
        </mxCell>
        <mxCell id="qpErMOOokMr1HH3b0IK4-2" value="Layer 2" style="rounded=0;whiteSpace=wrap;html=1;" vertex="1" parent="1">
          <mxGeometry x="250" y="40" width="50" height="210" as="geometry" />
        </mxCell>
        <mxCell id="qpErMOOokMr1HH3b0IK4-3" value="" style="endArrow=classic;html=1;rounded=0;exitX=1;exitY=0.5;exitDx=0;exitDy=0;entryX=0;entryY=0.5;entryDx=0;entryDy=0;" edge="1" parent="1" source="qpErMOOokMr1HH3b0IK4-1" target="qpErMOOokMr1HH3b0IK4-2">
          <mxGeometry width="50" height="50" relative="1" as="geometry">
            <mxPoint x="400" y="410" as="sourcePoint" />
            <mxPoint x="450" y="360" as="targetPoint" />
          </mxGeometry>
        </mxCell>
        <mxCell id="qpErMOOokMr1HH3b0IK4-4" value="Model 1" style="text;html=1;align=center;verticalAlign=middle;resizable=0;points=[];autosize=1;strokeColor=none;fillColor=none;" vertex="1" parent="1">
          <mxGeometry x="155" y="298" width="70" height="30" as="geometry" />
        </mxCell>
        <mxCell id="qpErMOOokMr1HH3b0IK4-5" value="Layer 1" style="rounded=0;whiteSpace=wrap;html=1;" vertex="1" parent="1">
          <mxGeometry x="100" y="360" width="50" height="210" as="geometry" />
        </mxCell>
        <mxCell id="qpErMOOokMr1HH3b0IK4-6" value="Layer 2" style="rounded=0;whiteSpace=wrap;html=1;" vertex="1" parent="1">
          <mxGeometry x="250" y="360" width="50" height="210" as="geometry" />
        </mxCell>
        <mxCell id="qpErMOOokMr1HH3b0IK4-7" value="" style="endArrow=classic;html=1;rounded=0;exitX=1;exitY=0.5;exitDx=0;exitDy=0;entryX=0;entryY=0.5;entryDx=0;entryDy=0;" edge="1" parent="1" source="qpErMOOokMr1HH3b0IK4-5" target="qpErMOOokMr1HH3b0IK4-6">
          <mxGeometry width="50" height="50" relative="1" as="geometry">
            <mxPoint x="400" y="730" as="sourcePoint" />
            <mxPoint x="450" y="680" as="targetPoint" />
          </mxGeometry>
        </mxCell>
        <mxCell id="qpErMOOokMr1HH3b0IK4-8" value="Model 2" style="text;html=1;align=center;verticalAlign=middle;resizable=0;points=[];autosize=1;strokeColor=none;fillColor=none;" vertex="1" parent="1">
          <mxGeometry x="155" y="618" width="70" height="30" as="geometry" />
        </mxCell>
        <mxCell id="qpErMOOokMr1HH3b0IK4-9" value="Layer 1" style="rounded=0;whiteSpace=wrap;html=1;" vertex="1" parent="1">
          <mxGeometry x="490" y="169" width="50" height="210" as="geometry" />
        </mxCell>
        <mxCell id="qpErMOOokMr1HH3b0IK4-10" value="Layer 2" style="rounded=0;whiteSpace=wrap;html=1;" vertex="1" parent="1">
          <mxGeometry x="640" y="169" width="50" height="210" as="geometry" />
        </mxCell>
        <mxCell id="qpErMOOokMr1HH3b0IK4-11" value="" style="endArrow=classic;html=1;rounded=0;exitX=1;exitY=0.5;exitDx=0;exitDy=0;entryX=0;entryY=0.5;entryDx=0;entryDy=0;" edge="1" parent="1" source="qpErMOOokMr1HH3b0IK4-9" target="qpErMOOokMr1HH3b0IK4-10">
          <mxGeometry width="50" height="50" relative="1" as="geometry">
            <mxPoint x="790" y="539" as="sourcePoint" />
            <mxPoint x="840" y="489" as="targetPoint" />
          </mxGeometry>
        </mxCell>
        <mxCell id="qpErMOOokMr1HH3b0IK4-12" value="Merged Model" style="text;html=1;align=center;verticalAlign=middle;resizable=0;points=[];autosize=1;strokeColor=none;fillColor=none;" vertex="1" parent="1">
          <mxGeometry x="530" y="427" width="100" height="30" as="geometry" />
        </mxCell>
        <mxCell id="qpErMOOokMr1HH3b0IK4-13" value="&lt;b&gt;Loss&lt;/b&gt;" style="ellipse;whiteSpace=wrap;html=1;" vertex="1" parent="1">
          <mxGeometry x="360" y="117.5" width="80" height="55" as="geometry" />
        </mxCell>
        <mxCell id="qpErMOOokMr1HH3b0IK4-15" value="" style="endArrow=classic;html=1;rounded=0;exitX=1;exitY=0.5;exitDx=0;exitDy=0;" edge="1" parent="1" source="qpErMOOokMr1HH3b0IK4-2" target="qpErMOOokMr1HH3b0IK4-13">
          <mxGeometry width="50" height="50" relative="1" as="geometry">
            <mxPoint x="210" y="140" as="sourcePoint" />
            <mxPoint x="310" y="140" as="targetPoint" />
          </mxGeometry>
        </mxCell>
      </root>
    </mxGraphModel>
  </diagram>
</mxfile>
